<svg width="24" height="25" viewBox="0 0 24 25" fill="none" xmlns="http://www.w3.org/2000/svg">
<g id="vuesax/linear/bookmark">
<g id="bookmark">
<path id="Vector" d="M9 22.5H15C20 22.5 22 20.5 22 15.5V9.5C22 4.5 20 2.5 15 2.5H9C4 2.5 2 4.5 2 9.5V15.5C2 20.5 4 22.5 9 22.5Z" stroke="#98A2B3" stroke-width="1.5" stroke-linecap="round" stroke-linejoin="round"/>
<path id="Vector_2" d="M17 2.93994V12.9199C17 14.8899 15.59 15.6599 13.86 14.6199L12.54 13.8299C12.24 13.6499 11.76 13.6499 11.46 13.8299L10.14 14.6199C8.41 15.6499 7 14.8899 7 12.9199V2.93994" stroke="#98A2B3" stroke-width="1.5" stroke-linecap="round" stroke-linejoin="round"/>
<path id="Vector_3" d="M9 22.5H15C20 22.5 22 20.5 22 15.5V9.5C22 4.5 20 2.5 15 2.5H9C4 2.5 2 4.5 2 9.5V15.5C2 20.5 4 22.5 9 22.5Z" stroke="#98A2B3" stroke-width="1.5" stroke-linecap="round" stroke-linejoin="round"/>
<path id="Vector_4" d="M17 2.93994V12.9199C17 14.8899 15.59 15.6599 13.86 14.6199L12.54 13.8299C12.24 13.6499 11.76 13.6499 11.46 13.8299L10.14 14.6199C8.41 15.6499 7 14.8899 7 12.9199V2.93994" stroke="#98A2B3" stroke-width="1.5" stroke-linecap="round" stroke-linejoin="round"/>
</g>
</g>
</svg>
