<svg width="20" height="21" viewBox="0 0 20 21" fill="none" xmlns="http://www.w3.org/2000/svg">
<g id="Star">
<path id="Vector" d="M16.3087 19.2958C15.6423 19.734 11.3662 16.9564 10.5472 16.9503C9.72821 16.9443 5.40396 19.6579 4.7453 19.2099C4.08665 18.7619 5.63511 14.1602 5.38835 13.4415C5.14158 12.7227 1.00137 9.77573 1.26071 9.06069C1.52011 8.34565 6.75323 8.27924 7.41966 7.84106C8.0861 7.40295 9.8516 2.86798 10.6706 2.87403C11.4896 2.88013 13.1753 7.44073 13.8339 7.88874C14.4926 8.33671 19.724 8.4809 19.9708 9.19968C20.2175 9.91846 16.0263 12.8035 15.7669 13.5186C15.5075 14.2336 16.9751 18.8576 16.3087 19.2958Z" fill="url(#paint0_linear_369_1723)"/>
</g>
<defs>
<linearGradient id="paint0_linear_369_1723" x1="1.24905" y1="11.1084" x2="19.9812" y2="11.1084" gradientUnits="userSpaceOnUse">
<stop stop-color="#FCD635"/>
<stop offset="1" stop-color="#F7A928"/>
</linearGradient>
</defs>
</svg>
