<svg width="16" height="17" viewBox="0 0 16 17" fill="none" xmlns="http://www.w3.org/2000/svg">
<g id="vuesax/linear/wallet">
<g id="wallet">
<path id="Vector" d="M8.43997 2.17892L8.41997 2.22559L6.48664 6.71225H4.58664C4.13331 6.71225 3.69997 6.80559 3.30664 6.97225L4.47331 4.18559L4.49997 4.11892L4.54664 4.01225C4.55997 3.97225 4.57331 3.93225 4.59331 3.89892C5.46664 1.87892 6.45331 1.41892 8.43997 2.17892Z" stroke="#3EB268" stroke-linecap="round" stroke-linejoin="round"/>
<path id="Vector_2" d="M12.0335 6.84538C11.7335 6.75204 11.4135 6.71204 11.0935 6.71204H6.48682L8.42015 2.22538L8.44015 2.17871C8.54015 2.21204 8.63348 2.25871 8.73348 2.29871L10.2068 2.91871C11.0268 3.25871 11.6001 3.61204 11.9468 4.03871C12.0135 4.11871 12.0668 4.19204 12.1135 4.27871C12.1735 4.37204 12.2202 4.46538 12.2468 4.56538C12.2735 4.62538 12.2935 4.68538 12.3068 4.73871C12.4868 5.29871 12.3802 5.98538 12.0335 6.84538Z" stroke="#3EB268" stroke-linecap="round" stroke-linejoin="round"/>
<path id="Vector_3" d="M14.348 9.96574V11.2657C14.348 11.3991 14.3413 11.5324 14.3346 11.6657C14.208 13.9924 12.908 15.1657 10.4413 15.1657H5.24131C5.08131 15.1657 4.92131 15.1524 4.76798 15.1324C2.64798 14.9924 1.51464 13.8591 1.37464 11.7391C1.35464 11.5857 1.34131 11.4257 1.34131 11.2657V9.96574C1.34131 8.62574 2.15464 7.4724 3.31464 6.9724C3.71464 6.80574 4.14131 6.7124 4.59464 6.7124H11.1013C11.428 6.7124 11.748 6.75907 12.0413 6.84574C13.368 7.2524 14.348 8.4924 14.348 9.96574Z" stroke="#3EB268" stroke-linecap="round" stroke-linejoin="round"/>
<path id="Vector_4" d="M4.4735 4.18555L3.30683 6.97221C2.14683 7.47221 1.3335 8.62555 1.3335 9.96555V8.01221C1.3335 6.11888 2.68016 4.53888 4.4735 4.18555Z" stroke="#3EB268" stroke-linecap="round" stroke-linejoin="round"/>
<path id="Vector_5" d="M14.3457 8.01161V9.96494C14.3457 8.49827 13.3724 7.25161 12.0391 6.85161C12.3857 5.98494 12.4857 5.30494 12.3191 4.73827C12.3057 4.67827 12.2857 4.61827 12.2591 4.56494C13.4991 5.20494 14.3457 6.51827 14.3457 8.01161Z" stroke="#3EB268" stroke-linecap="round" stroke-linejoin="round"/>
</g>
</g>
</svg>
