<svg width="30" height="30" viewBox="0 0 30 30" fill="none" xmlns="http://www.w3.org/2000/svg">
<g id="Logo" clip-path="url(#clip0_748_1646)">
<path id="Vector" fill-rule="evenodd" clip-rule="evenodd" d="M18.6643 8.53421C17.4632 7.73171 16.0512 7.30337 14.6067 7.30337V0C17.4957 0 20.3197 0.856671 22.7218 2.46168C25.1239 4.06668 26.996 6.34795 28.1016 9.01696C29.2071 11.686 29.4964 14.623 28.9328 17.4564C28.3692 20.2898 26.9781 22.8925 24.9352 24.9352C22.8925 26.9781 20.2898 28.3692 17.4564 28.9328C14.623 29.4964 11.686 29.2071 9.01696 28.1016C6.34795 26.996 4.06668 25.1239 2.46168 22.7218C0.856671 20.3197 0 17.4957 0 14.6067H7.30337C7.30337 16.0512 7.73171 17.4632 8.53421 18.6643C9.3367 19.8653 10.4773 20.8014 11.8119 21.3542C13.1464 21.907 14.6148 22.0516 16.0316 21.7697C17.4483 21.488 18.7496 20.7924 19.771 19.771C20.7924 18.7496 21.488 17.4483 21.7697 16.0316C22.0516 14.6148 21.907 13.1464 21.3542 11.8119C20.8014 10.4773 19.8653 9.3367 18.6643 8.53421Z" fill="#17A34A"/>
<path id="Vector_2" fill-rule="evenodd" clip-rule="evenodd" d="M7.30337 3.16327e-06C7.30337 0.959096 7.11447 1.9088 6.74743 2.79488C6.3804 3.68097 5.84244 4.48608 5.16426 5.16427C4.48608 5.84245 3.68097 6.38041 2.79488 6.74744C1.90879 7.11446 0.95909 7.30337 3.19238e-07 7.30337L0 14.6067C1.91818 14.6067 3.81759 14.2289 5.58976 13.4949C7.36194 12.7608 8.97219 11.6849 10.3285 10.3285C11.6849 8.97219 12.7608 7.36195 13.4949 5.58976C14.2289 3.81758 14.6067 1.91818 14.6067 0L7.30337 3.16327e-06Z" fill="#17A34A"/>
</g>
<defs>
<clipPath id="clip0_748_1646">
<rect width="29.2135" height="29.2135" fill="white"/>
</clipPath>
</defs>
</svg>
